<svg xmlns="http://www.w3.org/2000/svg" version="1.1" xmlns:xlink="http://www.w3.org/1999/xlink" xmlns:svgjs="http://svgjs.dev/svgjs" viewBox="0 0 800 800"><g stroke="hsl(0, 0%, 0%)" fill="none" stroke-linecap="round"><circle r="374" cx="400" cy="400" stroke-width="7.5" stroke-dasharray="2350 2350" transform="rotate(360, 400, 400)" opacity="1.00"></circle><circle r="357" cx="400" cy="400" stroke-width="7.5" stroke-dasharray="2136 2243" transform="rotate(343, 400, 400)" opacity="0.95"></circle><circle r="340" cx="400" cy="400" stroke-width="7.5" stroke-dasharray="1933 2136" transform="rotate(326, 400, 400)" opacity="0.91"></circle><circle r="323" cx="400" cy="400" stroke-width="7.5" stroke-dasharray="1740 2029" transform="rotate(309, 400, 400)" opacity="0.86"></circle><circle r="306" cx="400" cy="400" stroke-width="7.5" stroke-dasharray="1556 1923" transform="rotate(291, 400, 400)" opacity="0.82"></circle><circle r="289" cx="400" cy="400" stroke-width="7.5" stroke-dasharray="1383 1816" transform="rotate(274, 400, 400)" opacity="0.77"></circle><circle r="272" cx="400" cy="400" stroke-width="7.5" stroke-dasharray="1221 1709" transform="rotate(257, 400, 400)" opacity="0.73"></circle><circle r="255" cx="400" cy="400" stroke-width="7.5" stroke-dasharray="1068 1602" transform="rotate(240, 400, 400)" opacity="0.68"></circle><circle r="238" cx="400" cy="400" stroke-width="7.5" stroke-dasharray="926 1495" transform="rotate(223, 400, 400)" opacity="0.64"></circle><circle r="221" cx="400" cy="400" stroke-width="7.5" stroke-dasharray="793 1389" transform="rotate(206, 400, 400)" opacity="0.59"></circle><circle r="204" cx="400" cy="400" stroke-width="7.5" stroke-dasharray="671 1282" transform="rotate(189, 400, 400)" opacity="0.55"></circle><circle r="187" cx="400" cy="400" stroke-width="7.5" stroke-dasharray="560 1175" transform="rotate(171, 400, 400)" opacity="0.50"></circle><circle r="170" cx="400" cy="400" stroke-width="7.5" stroke-dasharray="458 1068" transform="rotate(154, 400, 400)" opacity="0.46"></circle><circle r="153" cx="400" cy="400" stroke-width="7.5" stroke-dasharray="366 961" transform="rotate(137, 400, 400)" opacity="0.41"></circle><circle r="136" cx="400" cy="400" stroke-width="7.5" stroke-dasharray="285 855" transform="rotate(120, 400, 400)" opacity="0.37"></circle><circle r="119" cx="400" cy="400" stroke-width="7.5" stroke-dasharray="214 748" transform="rotate(103, 400, 400)" opacity="0.32"></circle><circle r="102" cx="400" cy="400" stroke-width="7.5" stroke-dasharray="153 641" transform="rotate(86, 400, 400)" opacity="0.28"></circle><circle r="85" cx="400" cy="400" stroke-width="7.5" stroke-dasharray="102 534" transform="rotate(69, 400, 400)" opacity="0.23"></circle><circle r="68" cx="400" cy="400" stroke-width="7.5" stroke-dasharray="61 427" transform="rotate(51, 400, 400)" opacity="0.19"></circle><circle r="51" cx="400" cy="400" stroke-width="7.5" stroke-dasharray="31 320" transform="rotate(34, 400, 400)" opacity="0.14"></circle><circle r="34" cx="400" cy="400" stroke-width="7.5" stroke-dasharray="10 214" transform="rotate(17, 400, 400)" opacity="0.10"></circle><circle r="17" cx="400" cy="400" stroke-width="7.5" stroke-dasharray="0 107" opacity="0.05"></circle></g></svg>